<svg id="visual" viewBox="0 0 960 540" width="960" height="540" xmlns="http://www.w3.org/2000/svg" xmlns:xlink="http://www.w3.org/1999/xlink" version="1.1"><rect x="0" y="0" width="960" height="540" fill="#e7e5e4"></rect><defs><linearGradient id="grad1_0" x1="43.8%" y1="100%" x2="100%" y2="0%"><stop offset="14.444444444444446%" stop-color="#fb6767" stop-opacity="1"></stop><stop offset="85.55555555555554%" stop-color="#fb6767" stop-opacity="1"></stop></linearGradient></defs><defs><linearGradient id="grad1_1" x1="43.8%" y1="100%" x2="100%" y2="0%"><stop offset="14.444444444444446%" stop-color="#fb6767" stop-opacity="1"></stop><stop offset="85.55555555555554%" stop-color="#fa8577" stop-opacity="1"></stop></linearGradient></defs><defs><linearGradient id="grad1_2" x1="43.8%" y1="100%" x2="100%" y2="0%"><stop offset="14.444444444444446%" stop-color="#f7a08b" stop-opacity="1"></stop><stop offset="85.55555555555554%" stop-color="#fa8577" stop-opacity="1"></stop></linearGradient></defs><defs><linearGradient id="grad1_3" x1="43.8%" y1="100%" x2="100%" y2="0%"><stop offset="14.444444444444446%" stop-color="#f7a08b" stop-opacity="1"></stop><stop offset="85.55555555555554%" stop-color="#f3b8a5" stop-opacity="1"></stop></linearGradient></defs><defs><linearGradient id="grad1_4" x1="43.8%" y1="100%" x2="100%" y2="0%"><stop offset="14.444444444444446%" stop-color="#eecfc2" stop-opacity="1"></stop><stop offset="85.55555555555554%" stop-color="#f3b8a5" stop-opacity="1"></stop></linearGradient></defs><defs><linearGradient id="grad1_5" x1="43.8%" y1="100%" x2="100%" y2="0%"><stop offset="14.444444444444446%" stop-color="#eecfc2" stop-opacity="1"></stop><stop offset="85.55555555555554%" stop-color="#e7e5e4" stop-opacity="1"></stop></linearGradient></defs><defs><linearGradient id="grad2_0" x1="0%" y1="100%" x2="56.3%" y2="0%"><stop offset="14.444444444444446%" stop-color="#fb6767" stop-opacity="1"></stop><stop offset="85.55555555555554%" stop-color="#fb6767" stop-opacity="1"></stop></linearGradient></defs><defs><linearGradient id="grad2_1" x1="0%" y1="100%" x2="56.3%" y2="0%"><stop offset="14.444444444444446%" stop-color="#fa8577" stop-opacity="1"></stop><stop offset="85.55555555555554%" stop-color="#fb6767" stop-opacity="1"></stop></linearGradient></defs><defs><linearGradient id="grad2_2" x1="0%" y1="100%" x2="56.3%" y2="0%"><stop offset="14.444444444444446%" stop-color="#fa8577" stop-opacity="1"></stop><stop offset="85.55555555555554%" stop-color="#f7a08b" stop-opacity="1"></stop></linearGradient></defs><defs><linearGradient id="grad2_3" x1="0%" y1="100%" x2="56.3%" y2="0%"><stop offset="14.444444444444446%" stop-color="#f3b8a5" stop-opacity="1"></stop><stop offset="85.55555555555554%" stop-color="#f7a08b" stop-opacity="1"></stop></linearGradient></defs><defs><linearGradient id="grad2_4" x1="0%" y1="100%" x2="56.3%" y2="0%"><stop offset="14.444444444444446%" stop-color="#f3b8a5" stop-opacity="1"></stop><stop offset="85.55555555555554%" stop-color="#eecfc2" stop-opacity="1"></stop></linearGradient></defs><defs><linearGradient id="grad2_5" x1="0%" y1="100%" x2="56.3%" y2="0%"><stop offset="14.444444444444446%" stop-color="#e7e5e4" stop-opacity="1"></stop><stop offset="85.55555555555554%" stop-color="#eecfc2" stop-opacity="1"></stop></linearGradient></defs><g transform="translate(960, 540)"><path d="M-324 0C-320.1 -42.8 -316.1 -85.7 -299.3 -124C-282.6 -162.3 -252.9 -196 -219.9 -219.9C-186.9 -243.8 -150.5 -257.8 -113.3 -273.5C-76.1 -289.2 -38 -306.6 0 -324L0 0Z" fill="#ebdad3"></path><path d="M-270 0C-266.7 -35.7 -263.4 -71.4 -249.4 -103.3C-235.5 -135.2 -210.8 -163.4 -183.3 -183.3C-155.7 -203.1 -125.4 -214.8 -94.4 -227.9C-63.4 -241 -31.7 -255.5 0 -270L0 0Z" fill="#f1c4b3"></path><path d="M-216 0C-213.4 -28.6 -210.7 -57.1 -199.6 -82.7C-188.4 -108.2 -168.6 -130.7 -146.6 -146.6C-124.6 -162.5 -100.3 -171.8 -75.5 -182.3C-50.7 -192.8 -25.4 -204.4 0 -216L0 0Z" fill="#f5ac98"></path><path d="M-162 0C-160 -21.4 -158.1 -42.8 -149.7 -62C-141.3 -81.1 -126.5 -98 -110 -110C-93.4 -121.9 -75.2 -128.9 -56.6 -136.7C-38 -144.6 -19 -153.3 0 -162L0 0Z" fill="#f89381"></path><path d="M-108 0C-106.7 -14.3 -105.4 -28.6 -99.8 -41.3C-94.2 -54.1 -84.3 -65.3 -73.3 -73.3C-62.3 -81.3 -50.2 -85.9 -37.8 -91.2C-25.4 -96.4 -12.7 -102.2 0 -108L0 0Z" fill="#fa776e"></path><path d="M-54 0C-53.3 -7.1 -52.7 -14.3 -49.9 -20.7C-47.1 -27 -42.2 -32.7 -36.7 -36.7C-31.1 -40.6 -25.1 -43 -18.9 -45.6C-12.7 -48.2 -6.3 -51.1 0 -54L0 0Z" fill="#fb6767"></path></g><g transform="translate(0, 0)"><path d="M324 0C302.6 34.3 281.3 68.7 269.8 111.7C258.2 154.8 256.5 206.6 229.1 229.1C201.7 251.6 148.5 245 106 255.9C63.5 266.9 31.8 295.4 0 324L0 0Z" fill="#ebdad3"></path><path d="M270 0C252.2 28.6 234.4 57.2 224.8 93.1C215.2 129 213.8 172.1 190.9 190.9C168.1 209.7 123.7 204.1 88.3 213.3C52.9 222.4 26.5 246.2 0 270L0 0Z" fill="#f1c4b3"></path><path d="M216 0C201.8 22.9 187.5 45.8 179.8 74.5C172.2 103.2 171 137.7 152.7 152.7C134.4 167.8 99 163.3 70.7 170.6C42.4 177.9 21.2 197 0 216L0 0Z" fill="#f5ac98"></path><path d="M162 0C151.3 17.2 140.6 34.3 134.9 55.9C129.1 77.4 128.3 103.3 114.6 114.6C100.8 125.8 74.2 122.5 53 128C31.8 133.4 15.9 147.7 0 162L0 0Z" fill="#f89381"></path><path d="M108 0C100.9 11.4 93.8 22.9 89.9 37.2C86.1 51.6 85.5 68.9 76.4 76.4C67.2 83.9 49.5 81.7 35.3 85.3C21.2 89 10.6 98.5 0 108L0 0Z" fill="#fa776e"></path><path d="M54 0C50.4 5.7 46.9 11.4 45 18.6C43 25.8 42.8 34.4 38.2 38.2C33.6 41.9 24.7 40.8 17.7 42.7C10.6 44.5 5.3 49.2 0 54L0 0Z" fill="#fb6767"></path></g></svg>