<svg id="visual" viewBox="0 0 960 540" width="960" height="540" xmlns="http://www.w3.org/2000/svg" xmlns:xlink="http://www.w3.org/1999/xlink" version="1.1"><rect x="0" y="0" width="960" height="540" fill="#e7e5e4"></rect><defs><linearGradient id="grad1_0" x1="43.8%" y1="0%" x2="100%" y2="100%"><stop offset="14.444444444444446%" stop-color="#fb6767" stop-opacity="1"></stop><stop offset="85.55555555555554%" stop-color="#fb6767" stop-opacity="1"></stop></linearGradient></defs><defs><linearGradient id="grad1_1" x1="43.8%" y1="0%" x2="100%" y2="100%"><stop offset="14.444444444444446%" stop-color="#fb6767" stop-opacity="1"></stop><stop offset="85.55555555555554%" stop-color="#fa8577" stop-opacity="1"></stop></linearGradient></defs><defs><linearGradient id="grad1_2" x1="43.8%" y1="0%" x2="100%" y2="100%"><stop offset="14.444444444444446%" stop-color="#f7a08b" stop-opacity="1"></stop><stop offset="85.55555555555554%" stop-color="#fa8577" stop-opacity="1"></stop></linearGradient></defs><defs><linearGradient id="grad1_3" x1="43.8%" y1="0%" x2="100%" y2="100%"><stop offset="14.444444444444446%" stop-color="#f7a08b" stop-opacity="1"></stop><stop offset="85.55555555555554%" stop-color="#f3b8a5" stop-opacity="1"></stop></linearGradient></defs><defs><linearGradient id="grad1_4" x1="43.8%" y1="0%" x2="100%" y2="100%"><stop offset="14.444444444444446%" stop-color="#eecfc2" stop-opacity="1"></stop><stop offset="85.55555555555554%" stop-color="#f3b8a5" stop-opacity="1"></stop></linearGradient></defs><defs><linearGradient id="grad1_5" x1="43.8%" y1="0%" x2="100%" y2="100%"><stop offset="14.444444444444446%" stop-color="#eecfc2" stop-opacity="1"></stop><stop offset="85.55555555555554%" stop-color="#e7e5e4" stop-opacity="1"></stop></linearGradient></defs><defs><linearGradient id="grad2_0" x1="0%" y1="0%" x2="56.3%" y2="100%"><stop offset="14.444444444444446%" stop-color="#fb6767" stop-opacity="1"></stop><stop offset="85.55555555555554%" stop-color="#fb6767" stop-opacity="1"></stop></linearGradient></defs><defs><linearGradient id="grad2_1" x1="0%" y1="0%" x2="56.3%" y2="100%"><stop offset="14.444444444444446%" stop-color="#fa8577" stop-opacity="1"></stop><stop offset="85.55555555555554%" stop-color="#fb6767" stop-opacity="1"></stop></linearGradient></defs><defs><linearGradient id="grad2_2" x1="0%" y1="0%" x2="56.3%" y2="100%"><stop offset="14.444444444444446%" stop-color="#fa8577" stop-opacity="1"></stop><stop offset="85.55555555555554%" stop-color="#f7a08b" stop-opacity="1"></stop></linearGradient></defs><defs><linearGradient id="grad2_3" x1="0%" y1="0%" x2="56.3%" y2="100%"><stop offset="14.444444444444446%" stop-color="#f3b8a5" stop-opacity="1"></stop><stop offset="85.55555555555554%" stop-color="#f7a08b" stop-opacity="1"></stop></linearGradient></defs><defs><linearGradient id="grad2_4" x1="0%" y1="0%" x2="56.3%" y2="100%"><stop offset="14.444444444444446%" stop-color="#f3b8a5" stop-opacity="1"></stop><stop offset="85.55555555555554%" stop-color="#eecfc2" stop-opacity="1"></stop></linearGradient></defs><defs><linearGradient id="grad2_5" x1="0%" y1="0%" x2="56.3%" y2="100%"><stop offset="14.444444444444446%" stop-color="#e7e5e4" stop-opacity="1"></stop><stop offset="85.55555555555554%" stop-color="#eecfc2" stop-opacity="1"></stop></linearGradient></defs><g transform="translate(960, 0)"><path d="M0 324C-46.7 323.8 -93.4 323.6 -124 299.3C-154.6 275.1 -169.2 226.9 -194.5 194.5C-219.7 162 -255.6 145.3 -279 115.6C-302.4 85.8 -313.2 42.9 -324 0L0 0Z" fill="#ebdad3"></path><path d="M0 270C-38.9 269.8 -77.8 269.6 -103.3 249.4C-128.8 229.3 -141 189.1 -162 162C-183.1 135 -213 121.1 -232.5 96.3C-252 71.5 -261 35.7 -270 0L0 0Z" fill="#f1c4b3"></path><path d="M0 216C-31.1 215.9 -62.2 215.7 -82.7 199.6C-103.1 183.4 -112.8 151.3 -129.6 129.6C-146.5 108 -170.4 96.9 -186 77C-201.6 57.2 -208.8 28.6 -216 0L0 0Z" fill="#f5ac98"></path><path d="M0 162C-23.3 161.9 -46.7 161.8 -62 149.7C-77.3 137.6 -84.6 113.4 -97.2 97.2C-109.9 81 -127.8 72.7 -139.5 57.8C-151.2 42.9 -156.6 21.4 -162 0L0 0Z" fill="#f89381"></path><path d="M0 108C-15.6 107.9 -31.1 107.9 -41.3 99.8C-51.5 91.7 -56.4 75.6 -64.8 64.8C-73.2 54 -85.2 48.4 -93 38.5C-100.8 28.6 -104.4 14.3 -108 0L0 0Z" fill="#fa776e"></path><path d="M0 54C-7.8 54 -15.6 53.9 -20.7 49.9C-25.8 45.9 -28.2 37.8 -32.4 32.4C-36.6 27 -42.6 24.2 -46.5 19.3C-50.4 14.3 -52.2 7.1 -54 0L0 0Z" fill="#fb6767"></path></g><g transform="translate(0, 540)"><path d="M0 -324C40.6 -312.9 81.2 -301.8 118.2 -285.5C155.3 -269.1 188.8 -247.5 220.6 -220.6C252.4 -193.7 282.4 -161.6 299.3 -124C316.3 -86.3 320.1 -43.2 324 0L0 0Z" fill="#ebdad3"></path><path d="M0 -270C33.8 -260.8 67.7 -251.5 98.5 -237.9C129.4 -224.3 157.4 -206.2 183.8 -183.8C210.3 -161.5 235.3 -134.7 249.4 -103.3C263.6 -72 266.8 -36 270 0L0 0Z" fill="#f1c4b3"></path><path d="M0 -216C27.1 -208.6 54.1 -201.2 78.8 -190.3C103.5 -179.4 125.9 -165 147.1 -147.1C168.3 -129.2 188.3 -107.8 199.6 -82.7C210.8 -57.6 213.4 -28.8 216 0L0 0Z" fill="#f5ac98"></path><path d="M0 -162C20.3 -156.5 40.6 -150.9 59.1 -142.7C77.7 -134.6 94.4 -123.7 110.3 -110.3C126.2 -96.9 141.2 -80.8 149.7 -62C158.1 -43.2 160.1 -21.6 162 0L0 0Z" fill="#f89381"></path><path d="M0 -108C13.5 -104.3 27.1 -100.6 39.4 -95.2C51.8 -89.7 62.9 -82.5 73.5 -73.5C84.1 -64.6 94.1 -53.9 99.8 -41.3C105.4 -28.8 106.7 -14.4 108 0L0 0Z" fill="#fa776e"></path><path d="M0 -54C6.8 -52.2 13.5 -50.3 19.7 -47.6C25.9 -44.9 31.5 -41.2 36.8 -36.8C42.1 -32.3 47.1 -26.9 49.9 -20.7C52.7 -14.4 53.4 -7.2 54 0L0 0Z" fill="#fb6767"></path></g></svg>