<svg id="visual" viewBox="0 0 960 540" width="960" height="540" xmlns="http://www.w3.org/2000/svg" xmlns:xlink="http://www.w3.org/1999/xlink" version="1.1"><rect x="0" y="0" width="960" height="540" fill="#e7e5e4"></rect><path d="M0 400L22.8 400.3C45.7 400.7 91.3 401.3 137 389.8C182.7 378.3 228.3 354.7 274 351.8C319.7 349 365.3 367 411.2 370.7C457 374.3 503 363.7 548.8 366.2C594.7 368.7 640.3 384.3 686 378.7C731.7 373 777.3 346 823 340.8C868.7 335.7 914.3 352.3 937.2 360.7L960 369L960 541L937.2 541C914.3 541 868.7 541 823 541C777.3 541 731.7 541 686 541C640.3 541 594.7 541 548.8 541C503 541 457 541 411.2 541C365.3 541 319.7 541 274 541C228.3 541 182.7 541 137 541C91.3 541 45.7 541 22.8 541L0 541Z" fill="#f6cac7"></path><path d="M0 360L22.8 370.7C45.7 381.3 91.3 402.7 137 406.5C182.7 410.3 228.3 396.7 274 386.2C319.7 375.7 365.3 368.3 411.2 368.7C457 369 503 377 548.8 386.7C594.7 396.3 640.3 407.7 686 402.5C731.7 397.3 777.3 375.7 823 369C868.7 362.3 914.3 370.7 937.2 374.8L960 379L960 541L937.2 541C914.3 541 868.7 541 823 541C777.3 541 731.7 541 686 541C640.3 541 594.7 541 548.8 541C503 541 457 541 411.2 541C365.3 541 319.7 541 274 541C228.3 541 182.7 541 137 541C91.3 541 45.7 541 22.8 541L0 541Z" fill="#fcb2b5"></path><path d="M0 419L22.8 421.5C45.7 424 91.3 429 137 428.5C182.7 428 228.3 422 274 415.3C319.7 408.7 365.3 401.3 411.2 407.7C457 414 503 434 548.8 444.2C594.7 454.3 640.3 454.7 686 451.7C731.7 448.7 777.3 442.3 823 434.8C868.7 427.3 914.3 418.7 937.2 414.3L960 410L960 541L937.2 541C914.3 541 868.7 541 823 541C777.3 541 731.7 541 686 541C640.3 541 594.7 541 548.8 541C503 541 457 541 411.2 541C365.3 541 319.7 541 274 541C228.3 541 182.7 541 137 541C91.3 541 45.7 541 22.8 541L0 541Z" fill="#ff99aa"></path><path d="M0 440L22.8 446.7C45.7 453.3 91.3 466.7 137 472C182.7 477.3 228.3 474.7 274 473.3C319.7 472 365.3 472 411.2 469.7C457 467.3 503 462.7 548.8 456.2C594.7 449.7 640.3 441.3 686 445.5C731.7 449.7 777.3 466.3 823 468.8C868.7 471.3 914.3 459.7 937.2 453.8L960 448L960 541L937.2 541C914.3 541 868.7 541 823 541C777.3 541 731.7 541 686 541C640.3 541 594.7 541 548.8 541C503 541 457 541 411.2 541C365.3 541 319.7 541 274 541C228.3 541 182.7 541 137 541C91.3 541 45.7 541 22.8 541L0 541Z" fill="#ff7ea4"></path><path d="M0 509L22.8 505.8C45.7 502.7 91.3 496.3 137 494.2C182.7 492 228.3 494 274 491.8C319.7 489.7 365.3 483.3 411.2 485.8C457 488.3 503 499.7 548.8 503.8C594.7 508 640.3 505 686 501.3C731.7 497.7 777.3 493.3 823 494.7C868.7 496 914.3 503 937.2 506.5L960 510L960 541L937.2 541C914.3 541 868.7 541 823 541C777.3 541 731.7 541 686 541C640.3 541 594.7 541 548.8 541C503 541 457 541 411.2 541C365.3 541 319.7 541 274 541C228.3 541 182.7 541 137 541C91.3 541 45.7 541 22.8 541L0 541Z" fill="#ff61a3"></path></svg>