<?xml version="1.0" standalone="no"?>
<!DOCTYPE svg PUBLIC "-//W3C//DTD SVG 20010904//EN"
 "http://www.w3.org/TR/2001/REC-SVG-20010904/DTD/svg10.dtd">
<svg version="1.0" xmlns="http://www.w3.org/2000/svg"
 width="300.000000pt" height="95.000000pt" viewBox="0 0 300.000000 95.000000"
 preserveAspectRatio="xMidYMid meet">
<metadata>
Created by potrace 1.10, written by Peter Selinger 2001-2011
</metadata>
<g transform="translate(0.000000,95.000000) scale(0.100000,-0.100000)"
fill="#000000" stroke="none">
<path d="M1966 919 c-14 -17 -26 -37 -26 -44 0 -7 -18 -28 -40 -45 l-41 -32
-39 27 c-32 22 -51 28 -96 27 -31 0 -61 -5 -67 -11 -19 -19 -34 -12 -40 18
-10 47 -60 76 -134 76 -53 0 -66 -4 -99 -30 -62 -51 -76 -86 -72 -192 2 -74 7
-97 24 -119 32 -43 65 -63 116 -70 39 -6 57 -2 102 20 l55 27 31 -23 c24 -17
45 -23 84 -23 49 0 60 5 122 50 10 7 18 4 28 -11 24 -34 70 -49 105 -34 23 9
37 9 64 -1 31 -11 39 -10 70 8 34 21 35 21 63 2 37 -24 61 -24 98 0 29 19 30
19 54 0 30 -23 53 -24 91 -4 26 13 33 13 60 -1 20 -10 42 -13 61 -9 26 6 31 3
43 -28 27 -62 121 -85 202 -48 54 24 76 51 82 101 5 33 1 48 -16 71 -15 19
-20 37 -15 47 7 16 17 72 30 158 6 36 3 43 -21 62 -36 29 -68 28 -99 -3 -13
-13 -39 -27 -56 -30 -37 -7 -86 -30 -95 -46 -5 -7 -17 -1 -35 16 -25 24 -34
26 -72 21 -24 -4 -54 -6 -68 -6 -139 5 -129 3 -123 30 3 17 -3 35 -17 53 -28
35 -92 38 -127 5 l-23 -21 -23 21 c-17 16 -36 22 -69 22 -39 0 -50 -5 -72 -31z
m128 -21 c18 -25 20 -90 7 -201 -6 -53 -4 -67 6 -63 15 6 37 -30 28 -44 -4 -6
-20 -17 -36 -25 -41 -22 -73 -5 -67 36 6 38 -5 37 -19 -1 -14 -37 -53 -54 -87
-38 -61 27 -70 175 -15 234 24 26 66 31 100 14 16 -9 19 -7 19 14 0 19 -6 25
-27 28 -40 4 -44 42 -6 56 47 17 81 14 97 -10z m170 0 c16 -26 -4 -52 -43 -56
-51 -5 -80 35 -49 66 18 18 79 11 92 -10z m-699 -14 c28 -18 29 -24 14 -94
-10 -48 -12 -50 -45 -50 -33 0 -34 1 -34 40 0 37 -2 40 -29 40 -28 0 -29 -2
-35 -57 -3 -32 -2 -74 2 -93 6 -29 13 -36 36 -38 15 -2 42 2 58 9 27 11 32 10
44 -6 19 -25 14 -36 -24 -58 -40 -24 -121 -24 -156 -2 -78 51 -73 257 8 306
39 24 127 26 161 3z m1256 -14 c22 -12 25 -48 5 -75 -8 -12 -12 -33 -9 -56 5
-33 1 -43 -25 -69 -23 -22 -40 -30 -66 -30 -20 0 -36 -4 -36 -10 0 -6 28 -10
65 -10 53 0 66 -3 75 -19 17 -32 12 -59 -17 -91 -67 -75 -251 -48 -197 28 13
20 17 20 37 8 35 -22 92 -29 106 -13 16 20 4 27 -46 27 -25 0 -53 5 -64 10
-20 11 -26 54 -9 65 6 4 0 18 -15 37 -31 37 -33 86 -5 116 26 27 60 36 111 29
40 -5 41 -5 34 20 -9 37 18 53 56 33z m-1015 -73 c23 -20 28 -34 32 -87 7
-102 -31 -153 -117 -153 -79 0 -118 57 -108 156 3 41 11 56 36 79 42 38 116
40 157 5z m448 7 c20 -19 20 -44 1 -117 -8 -32 -15 -60 -15 -62 0 -2 9 -1 20
2 25 7 37 -21 19 -43 -24 -29 -59 -36 -87 -18 -23 15 -24 19 -20 100 3 63 1
84 -8 84 -12 0 -30 38 -22 44 34 29 89 33 112 10z m145 -2 c5 -10 6 -36 1 -60
-4 -23 -4 -42 0 -42 4 0 11 15 14 34 10 53 41 86 81 86 61 0 82 -68 50 -159
-14 -40 -14 -41 5 -31 15 8 21 6 30 -11 14 -25 3 -41 -39 -59 -22 -9 -35 -9
-50 0 -19 9 -21 20 -21 90 0 44 -4 80 -8 80 -5 0 -18 -21 -31 -47 -17 -39 -20
-54 -12 -81 9 -30 8 -34 -15 -42 -14 -6 -37 -7 -50 -4 -25 6 -25 8 -23 97 1
74 -1 91 -15 99 -19 11 -22 54 -3 61 29 12 77 6 86 -11z m-895 -87 c11 -8 31
-15 45 -15 41 0 10 -20 -35 -23 -36 -2 -39 0 -42 26 -4 30 4 33 32 12z"/>
<path d="M1967 734 c-9 -9 -8 -73 2 -99 7 -17 11 -15 35 22 33 49 31 77 -4 81
-14 2 -29 0 -33 -4z"/>
<path d="M2682 723 c2 -22 9 -29 31 -31 24 -3 27 0 27 27 0 28 -3 31 -31 31
-27 0 -30 -3 -27 -27z"/>
<path d="M1702 683 c3 -51 6 -58 25 -61 17 -2 23 3 28 27 4 17 4 45 0 61 -5
23 -12 30 -31 30 -24 0 -25 -2 -22 -57z"/>
<path d="M193 925 c-17 -7 -40 -26 -50 -41 -17 -27 -20 -76 -15 -254 1 -19 -1
-133 -4 -252 -6 -250 0 -288 49 -319 26 -16 44 -19 97 -15 36 3 72 5 80 5 8
-1 132 -3 275 -5 281 -5 301 -2 335 46 18 25 27 28 89 32 104 6 111 15 111
146 0 84 -3 109 -17 124 -15 17 -15 19 0 36 14 15 17 40 17 125 0 102 -1 106
-26 126 -29 23 -74 27 -92 9 -9 -9 -17 -9 -36 1 -21 12 -24 21 -28 97 -5 96
-24 126 -87 144 -59 16 -659 12 -698 -5z m733 -46 c16 -18 19 -37 19 -115 l0
-94 28 0 c21 0 28 -4 25 -16 -3 -14 -37 -16 -286 -17 l-284 -2 -1 -83 -2 -82
338 0 337 0 0 85 0 86 -27 -3 c-20 -2 -28 2 -28 12 0 19 51 26 71 9 10 -8 14
-37 14 -111 0 -115 4 -111 -109 -112 -73 -1 -76 -2 -76 -25 0 -24 2 -24 78
-22 49 1 84 -2 93 -10 19 -15 20 -204 2 -216 -7 -4 -49 -8 -93 -8 -80 0 -80 0
-83 -27 -6 -55 -22 -58 -309 -58 -227 0 -263 2 -263 15 0 13 35 15 259 15 255
0 260 0 275 22 8 12 13 25 10 30 -3 5 -116 8 -252 8 -288 -1 -272 -8 -272 110
0 127 -14 121 278 120 l247 -1 0 23 0 23 -250 2 c-292 2 -275 -5 -275 113 0
126 -14 120 279 120 l249 0 0 25 0 25 -364 0 -363 0 -3 -37 c-2 -25 -8 -38
-18 -38 -22 0 -17 211 7 237 15 17 40 18 373 18 350 0 357 0 376 -21z m-552
-211 c-4 -13 -8 -66 -9 -119 0 -81 3 -100 19 -117 18 -21 18 -22 -3 -48 -17
-22 -21 -40 -21 -108 0 -53 5 -91 15 -110 14 -26 14 -30 -2 -42 -22 -16 -30
-17 -38 -4 -3 6 -22 10 -41 10 -39 0 -74 15 -74 31 0 6 11 8 28 5 17 -4 35 -1
47 8 19 14 20 27 21 240 0 208 -1 228 -18 243 -16 14 -24 15 -49 6 -22 -9 -29
-8 -29 1 0 22 12 26 88 26 73 0 74 0 66 -22z m-78 -39 c8 -13 -15 -30 -36 -26
-8 1 -16 10 -18 20 -3 12 3 17 22 17 14 0 28 -5 32 -11z m-106 -267 c0 -172 3
-241 12 -250 7 -7 38 -12 70 -12 45 0 58 -3 58 -15 0 -25 -124 -21 -150 5 -11
11 -20 26 -20 33 -1 39 -1 463 -1 470 1 4 8 7 16 7 13 0 15 -33 15 -238z m350
223 c0 -16 -45 -21 -54 -6 -8 12 4 21 31 21 14 0 23 -6 23 -15z m255 0 c0 -11
-178 -20 -202 -10 -8 2 -11 10 -8 15 9 14 210 9 210 -5z m115 0 c0 -11 -11
-15 -40 -15 -29 0 -40 4 -40 15 0 11 11 15 40 15 29 0 40 -4 40 -15z m140 0
c0 -5 -25 -11 -55 -13 -45 -2 -55 0 -55 13 0 13 10 15 55 13 30 -2 55 -7 55
-13z m-752 -32 c2 -9 -7 -13 -27 -13 -21 0 -31 5 -31 16 0 19 51 16 58 -3z
m242 -39 c0 -11 -8 -14 -27 -12 -39 4 -42 28 -4 28 21 0 31 -5 31 -16z m100 0
c0 -11 -8 -14 -27 -12 -39 4 -42 28 -4 28 21 0 31 -5 31 -16z m110 1 c0 -11
-11 -15 -40 -15 -29 0 -40 4 -40 15 0 11 11 15 40 15 29 0 40 -4 40 -15z m240
0 c0 -12 -18 -15 -104 -15 -96 0 -126 7 -109 24 3 3 53 6 110 6 85 0 103 -3
103 -15z m-692 -32 c2 -9 -7 -13 -27 -13 -21 0 -31 5 -31 16 0 19 51 16 58 -3z
m2 -68 c0 -10 -10 -15 -30 -15 -20 0 -30 5 -30 15 0 10 10 15 30 15 20 0 30
-5 30 -15z m-2 -67 c-7 -20 -58 -23 -58 -4 0 11 10 16 31 16 20 0 29 -4 27
-12z m0 -70 c-7 -20 -58 -23 -58 -4 0 11 10 16 31 16 20 0 29 -4 27 -12z m-3
-68 c0 -18 -33 -26 -47 -12 -6 6 -7 15 -3 22 10 16 50 8 50 -10z"/>
<path d="M197 863 c-4 -3 -7 -30 -7 -60 l0 -53 364 0 364 0 -5 48 c-3 26 -6
53 -8 60 -3 9 -83 12 -353 12 -192 0 -352 -3 -355 -7z m571 -50 c3 -10 -38
-13 -182 -13 -168 0 -208 5 -189 24 4 3 88 5 187 4 133 -2 180 -6 184 -15z
m107 2 c0 -5 -19 -11 -42 -13 -34 -3 -43 0 -43 13 0 13 9 16 43 13 23 -2 42
-7 42 -13z"/>
<path d="M430 357 c-1 -1 -2 -39 -3 -85 l-2 -82 338 0 337 0 0 83 0 82 -335 2
c-184 1 -335 1 -335 0z m194 -26 c8 -12 -37 -124 -52 -129 -18 -6 -15 19 9 82
21 54 32 66 43 47z m-87 -39 c-15 -17 -15 -19 -1 -34 9 -9 13 -21 9 -28 -5 -8
-16 -3 -36 16 l-29 28 27 28 c30 32 59 22 30 -10z m146 -44 c-15 -15 -30 -28
-35 -28 -14 0 -9 27 7 40 14 12 14 15 -1 31 -29 32 -5 43 27 13 l29 -28 -27
-28z m385 43 c2 -12 1 -34 -2 -47 l-6 -24 -176 0 -175 0 12 21 c6 12 8 34 5
50 l-6 29 173 -2 172 -3 3 -24z"/>
<path d="M1393 443 c-21 -4 -63 -46 -63 -63 0 -4 11 -24 25 -44 24 -36 25 -39
12 -89 -8 -29 -26 -70 -40 -91 -15 -21 -27 -43 -27 -48 0 -5 13 -23 29 -39 49
-48 137 -30 156 32 6 19 9 18 27 -12 11 -19 26 -37 32 -41 19 -13 71 -9 95 8
21 15 25 15 55 -1 43 -24 98 -14 126 23 21 26 21 36 5 90 -5 15 -3 22 6 22 8
0 22 -22 32 -49 33 -93 125 -126 213 -77 l47 26 23 -25 c26 -29 77 -33 108
-10 17 13 22 13 42 0 29 -19 61 -19 97 0 25 13 33 13 55 1 18 -9 58 -13 114
-12 77 1 89 4 112 25 27 25 34 69 15 88 -6 6 -12 38 -13 71 -4 73 -24 108 -74
129 -50 21 -136 13 -164 -15 l-21 -20 -38 25 c-30 20 -45 24 -71 18 -42 -8
-74 -8 -116 0 -22 5 -40 2 -56 -9 -22 -14 -28 -14 -60 -1 -46 20 -97 19 -140
-2 -34 -16 -37 -15 -70 2 -29 16 -38 17 -64 6 -22 -9 -36 -10 -50 -2 -32 17
-67 13 -96 -10 l-26 -21 -16 39 c-30 71 -48 83 -128 82 -39 -1 -81 -4 -93 -6z
m205 -148 c18 -66 36 -141 39 -167 5 -44 4 -47 -20 -53 -14 -4 -36 -5 -48 -3
-21 3 -24 9 -27 51 l-3 47 -38 0 c-36 0 -39 -2 -44 -36 -8 -45 -23 -64 -53
-64 -28 0 -74 20 -74 32 0 21 21 47 34 42 10 -4 20 22 37 95 l24 99 -27 6
c-23 5 -28 11 -28 35 0 27 4 30 38 34 20 2 64 4 97 3 l60 -1 33 -120z m152 30
c8 -10 11 -31 6 -61 -7 -53 9 -51 17 2 14 86 97 103 97 20 0 -42 -13 -60 -38
-52 -20 7 -41 -14 -71 -72 -12 -22 -11 -23 16 -20 22 2 29 -1 31 -19 6 -40
-75 -72 -106 -41 -7 7 -12 44 -12 94 0 64 -3 83 -15 88 -21 8 -19 53 3 65 25
15 58 13 72 -4z m330 -10 c11 -10 23 -34 26 -53 6 -31 3 -39 -21 -60 -24 -20
-36 -23 -72 -19 -46 5 -57 -9 -27 -34 12 -10 24 -10 57 -1 36 9 44 9 54 -5 16
-20 5 -35 -41 -57 -49 -23 -90 -20 -125 10 -66 55 -60 175 9 222 41 28 108 26
140 -3z m140 10 c9 -10 10 -31 6 -68 -8 -60 4 -54 23 11 22 77 94 94 130 30
12 -21 13 -36 5 -75 -6 -26 -14 -56 -19 -66 -6 -14 -3 -17 16 -15 33 4 38 -34
7 -56 -29 -21 -62 -20 -83 1 -14 14 -16 28 -11 85 8 79 -3 88 -34 28 -13 -26
-19 -55 -18 -82 l3 -43 -40 0 -40 0 -3 90 c-2 66 -7 92 -17 98 -21 11 -19 54
3 66 25 15 58 13 72 -4z m369 4 c17 -6 36 -19 41 -29 13 -24 13 -101 0 -134
-9 -24 -8 -26 14 -20 37 9 44 -25 10 -54 -37 -33 -77 -27 -85 13 -4 17 -7 24
-8 18 -2 -22 -40 -53 -66 -53 -57 0 -87 88 -44 131 17 17 30 20 65 16 37 -4
44 -2 44 13 0 24 -23 31 -70 24 -36 -6 -40 -4 -46 20 -3 15 -1 32 6 41 20 24
89 31 139 14z"/>
<path d="M1490 308 c0 -18 -3 -43 -6 -55 -5 -20 -2 -23 20 -23 14 0 26 2 26 5
0 2 -5 27 -11 55 -12 56 -29 67 -29 18z"/>
<path d="M1973 245 c-8 -21 -3 -24 30 -18 15 3 27 12 27 19 0 19 -49 18 -57
-1z"/>
<path d="M2513 165 c-3 -9 -2 -19 1 -23 8 -8 38 10 44 26 6 18 -38 14 -45 -3z"/>
</g>
</svg>
