<svg id="visual" viewBox="0 0 900 600" width="900" height="600" xmlns="http://www.w3.org/2000/svg" xmlns:xlink="http://www.w3.org/1999/xlink" version="1.1"><rect x="0" y="0" width="900" height="600" fill="#002233"></rect><path d="M0 81L12.5 80.3C25 79.7 50 78.3 75 82C100 85.7 125 94.3 150 103.2C175 112 200 121 225 114.8C250 108.7 275 87.3 300 89.8C325 92.3 350 118.7 375 118.2C400 117.7 425 90.3 450 92.3C475 94.3 500 125.7 525 143.8C550 162 575 167 600 151.5C625 136 650 100 675 87.5C700 75 725 86 750 90.3C775 94.7 800 92.3 825 90C850 87.7 875 85.3 887.5 84.2L900 83L900 0L887.5 0C875 0 850 0 825 0C800 0 775 0 750 0C725 0 700 0 675 0C650 0 625 0 600 0C575 0 550 0 525 0C500 0 475 0 450 0C425 0 400 0 375 0C350 0 325 0 300 0C275 0 250 0 225 0C200 0 175 0 150 0C125 0 100 0 75 0C50 0 25 0 12.5 0L0 0Z" fill="#18b1ff" stroke-linecap="round" stroke-linejoin="miter"></path></svg>